<?xml version="1.0" encoding="utf-8"?>
<!-- Generator: Adobe Illustrator 24.0.1, SVG Export Plug-In . SVG Version: 6.00 Build 0)  -->
<svg version="1.1" id="Layer_1" xmlns="http://www.w3.org/2000/svg" xmlns:xlink="http://www.w3.org/1999/xlink" x="0px" y="0px"
	 viewBox="0 0 226 80" style="enable-background:new 0 0 226 80;" xml:space="preserve">
<style type="text/css">
	.st0{fill:#105B34;}
	.st1{font-family:'TimesNewRomanPSMT';}
	.st2{font-size:40.6666px;}
	.st3{fill:#006837;stroke:#000000;stroke-width:0.25;stroke-miterlimit:10;}
	.st4{fill:none;stroke:#000000;stroke-width:0.5;stroke-miterlimit:10;}
</style>
<text transform="matrix(1.1042 0 0 1 80.7583 41.3691)" class="st0 st1 st2">Bratus</text>
<g>
	<path class="st0" d="M81.02,59.39h-7.99l-1.4,3.26c-0.35,0.8-0.52,1.4-0.52,1.79c0,0.31,0.15,0.59,0.45,0.83
		c0.3,0.24,0.95,0.39,1.94,0.46v0.56H67v-0.56c0.86-0.15,1.42-0.35,1.67-0.59c0.52-0.49,1.09-1.48,1.72-2.97l7.26-16.99h0.53
		l7.18,17.18c0.58,1.38,1.1,2.27,1.58,2.69c0.47,0.41,1.13,0.64,1.97,0.69v0.56h-8.15v-0.56c0.82-0.04,1.38-0.18,1.67-0.41
		c0.29-0.23,0.43-0.52,0.43-0.85c0-0.45-0.2-1.15-0.61-2.12L81.02,59.39z M80.6,58.27l-3.5-8.34l-3.59,8.34H80.6z"/>
	<path class="st0" d="M98.9,65.74v0.56h-8.85v-0.56h0.73c0.85,0,1.47-0.25,1.86-0.75c0.24-0.32,0.36-1.11,0.36-2.34V49.31
		c0-1.04-0.07-1.74-0.2-2.07c-0.1-0.25-0.31-0.47-0.63-0.66c-0.45-0.24-0.91-0.36-1.4-0.36h-0.73v-0.56h8.85v0.56h-0.75
		c-0.84,0-1.46,0.25-1.84,0.74c-0.26,0.33-0.38,1.11-0.38,2.35v13.34c0,1.04,0.07,1.73,0.2,2.07c0.1,0.25,0.31,0.47,0.64,0.66
		c0.44,0.24,0.9,0.36,1.39,0.36H98.9z"/>
	<path class="st0" d="M120.73,66.3h-5.51l-6.99-9.65c-0.52,0.02-0.94,0.03-1.26,0.03c-0.13,0-0.27,0-0.43-0.01
		c-0.15-0.01-0.31-0.01-0.47-0.02v6c0,1.3,0.14,2.11,0.43,2.42c0.39,0.45,0.96,0.67,1.73,0.67h0.81v0.56h-8.85v-0.56h0.78
		c0.87,0,1.5-0.28,1.87-0.85c0.21-0.31,0.32-1.06,0.32-2.24V49.31c0-1.3-0.14-2.11-0.43-2.42c-0.4-0.45-0.99-0.67-1.77-0.67h-0.78
		v-0.56h7.52c2.19,0,3.81,0.16,4.85,0.48c1.04,0.32,1.92,0.91,2.65,1.77c0.72,0.86,1.09,1.88,1.09,3.07c0,1.27-0.41,2.37-1.24,3.3
		c-0.83,0.94-2.11,1.59-3.84,1.98l4.26,5.92c0.97,1.36,1.81,2.27,2.51,2.71c0.7,0.45,1.61,0.73,2.74,0.85V66.3z M106.07,55.69
		c0.19,0,0.36,0,0.5,0.01c0.14,0,0.26,0.01,0.35,0.01c1.97,0,3.45-0.43,4.45-1.28c1-0.85,1.5-1.94,1.5-3.26
		c0-1.29-0.4-2.34-1.21-3.14c-0.81-0.81-1.87-1.21-3.2-1.21c-0.59,0-1.39,0.1-2.39,0.29V55.69z"/>
	<path class="st0" d="M138.33,60.6l0.5,0.11l-1.77,5.6h-15.98v-0.56h0.77c0.87,0,1.5-0.28,1.87-0.85c0.21-0.33,0.32-1.08,0.32-2.25
		V49.31c0-1.29-0.14-2.1-0.43-2.42c-0.4-0.45-0.99-0.67-1.77-0.67h-0.77v-0.56h9.35v0.56c-1.1-0.01-1.87,0.09-2.31,0.3
		c-0.44,0.21-0.74,0.48-0.9,0.81c-0.16,0.32-0.24,1.1-0.24,2.33v12.97c0,0.84,0.08,1.42,0.24,1.73c0.12,0.21,0.31,0.37,0.56,0.47
		c0.25,0.1,1.04,0.15,2.37,0.15h1.51c1.58,0,2.69-0.12,3.33-0.35c0.64-0.23,1.22-0.65,1.75-1.24
		C137.27,62.81,137.8,61.87,138.33,60.6z"/>
	<path class="st0" d="M149.12,65.74v0.56h-8.85v-0.56h0.73c0.85,0,1.47-0.25,1.86-0.75c0.24-0.32,0.37-1.11,0.37-2.34V49.31
		c0-1.04-0.07-1.74-0.2-2.07c-0.1-0.25-0.31-0.47-0.62-0.66c-0.45-0.24-0.92-0.36-1.4-0.36h-0.73v-0.56h8.85v0.56h-0.74
		c-0.84,0-1.46,0.25-1.84,0.74c-0.25,0.33-0.38,1.11-0.38,2.35v13.34c0,1.04,0.06,1.73,0.2,2.07c0.1,0.25,0.31,0.47,0.64,0.66
		c0.44,0.24,0.9,0.36,1.39,0.36H149.12z"/>
	<path class="st0" d="M149.47,45.66h5.6l12.62,15.48V49.24c0-1.27-0.14-2.06-0.43-2.38c-0.38-0.43-0.97-0.64-1.78-0.64h-0.72v-0.56
		h7.19v0.56h-0.73c-0.87,0-1.49,0.26-1.86,0.79c-0.22,0.32-0.34,1.07-0.34,2.22v17.4h-0.55l-13.61-16.63v12.71
		c0,1.27,0.14,2.06,0.41,2.38c0.39,0.43,0.98,0.64,1.78,0.64h0.73v0.56h-7.19v-0.56h0.72c0.88,0,1.51-0.26,1.87-0.79
		c0.22-0.33,0.34-1.07,0.34-2.22V48.37c-0.6-0.7-1.05-1.16-1.36-1.39c-0.31-0.22-0.76-0.43-1.36-0.62
		c-0.29-0.09-0.74-0.14-1.34-0.14V45.66z"/>
	<path class="st0" d="M178.92,46.79v8.16h4.54c1.18,0,1.96-0.18,2.36-0.53c0.53-0.47,0.82-1.29,0.88-2.47h0.56v7.19h-0.56
		c-0.14-1.01-0.28-1.65-0.43-1.93c-0.18-0.35-0.48-0.63-0.9-0.84c-0.41-0.2-1.06-0.3-1.92-0.3h-4.54v6.8c0,0.92,0.04,1.47,0.12,1.67
		c0.08,0.2,0.22,0.35,0.43,0.47c0.2,0.12,0.59,0.18,1.16,0.18h3.5c1.17,0,2.02-0.08,2.54-0.24c0.53-0.16,1.04-0.48,1.52-0.96
		c0.63-0.63,1.27-1.58,1.93-2.85h0.61l-1.78,5.18h-15.91v-0.56h0.73c0.49,0,0.95-0.12,1.39-0.35c0.32-0.16,0.54-0.41,0.66-0.73
		c0.12-0.32,0.18-0.99,0.18-1.99V49.25c0-1.31-0.13-2.12-0.4-2.42c-0.36-0.41-0.97-0.61-1.83-0.61h-0.73v-0.56h15.91l0.23,4.52
		h-0.59c-0.21-1.09-0.45-1.83-0.71-2.24c-0.26-0.41-0.64-0.72-1.15-0.93c-0.41-0.15-1.12-0.23-2.15-0.23H178.92z"/>
	<path class="st0" d="M205.74,45.19v7.14h-0.56c-0.18-1.37-0.51-2.46-0.98-3.27c-0.47-0.81-1.14-1.46-2.02-1.93
		c-0.87-0.48-1.78-0.72-2.71-0.72c-1.06,0-1.93,0.32-2.62,0.97c-0.69,0.64-1.04,1.38-1.04,2.2c0,0.63,0.22,1.2,0.65,1.72
		c0.63,0.76,2.13,1.78,4.49,3.05c1.93,1.04,3.25,1.83,3.95,2.38c0.7,0.55,1.25,1.21,1.63,1.96c0.38,0.75,0.57,1.54,0.57,2.36
		c0,1.56-0.61,2.91-1.82,4.04c-1.21,1.13-2.77,1.7-4.68,1.7c-0.6,0-1.16-0.05-1.69-0.14c-0.31-0.05-0.97-0.24-1.96-0.56
		c-0.99-0.32-1.62-0.48-1.88-0.48c-0.25,0-0.45,0.08-0.6,0.23c-0.15,0.15-0.26,0.47-0.33,0.94h-0.56V59.7h0.56
		c0.26,1.48,0.62,2.59,1.07,3.33s1.13,1.35,2.05,1.83c0.92,0.49,1.92,0.73,3.02,0.73c1.27,0,2.27-0.34,3.01-1.01
		c0.74-0.67,1.1-1.46,1.1-2.37c0-0.51-0.14-1.02-0.42-1.54c-0.28-0.52-0.71-1-1.3-1.45c-0.39-0.3-1.48-0.95-3.24-1.94
		c-1.77-0.99-3.02-1.78-3.77-2.37c-0.75-0.59-1.31-1.24-1.7-1.95c-0.39-0.71-0.58-1.49-0.58-2.35c0-1.48,0.57-2.76,1.71-3.83
		c1.14-1.07,2.58-1.61,4.34-1.61c1.1,0,2.26,0.27,3.49,0.81c0.57,0.25,0.97,0.38,1.2,0.38c0.26,0,0.48-0.08,0.65-0.24
		c0.17-0.16,0.3-0.47,0.4-0.95H205.74z"/>
</g>
<g>
	<g>
		<path class="st3" d="M35.85,42.67c-0.01,0.01-0.03,0.01-0.04,0.02C35.83,42.72,35.84,42.71,35.85,42.67z"/>
		<polygon class="st3" points="32.27,24.6 32.27,24.6 32.27,24.6 		"/>
		<path class="st3" d="M38.84,53.63c0.39-0.24,0.48-0.45,0.14-0.32c-0.31,0.12-1.09,0.14-1.09,0.04c0-0.05,0.03-0.09,0.06-0.09
			c0.03,0,0.06-0.05,0.06-0.11c0-0.06-0.12-0.1-0.27-0.1c-0.37,0.01-0.96-0.22-1-0.4c-0.02-0.1,0.02-0.15,0.11-0.15
			c0.08,0,0.14-0.05,0.14-0.11c0-0.06,0.04-0.08,0.08-0.04c0.05,0.03,0.08,0,0.08-0.06c0-0.08,0.04-0.07,0.13,0.04
			c0.07,0.09,0.19,0.17,0.27,0.17l0.09,0l-0.13-0.21l-0.13-0.2l0.27-0.03l0.27-0.04l-0.19-0.18l-0.19-0.18l0.17,0
			c0.11,0,0.22-0.1,0.3-0.27c0.07-0.15,0.16-0.27,0.19-0.27s0.09-0.1,0.13-0.22c0.1-0.31-0.03-0.37-0.35-0.17
			c-0.34,0.22-0.42,0.22-0.38-0.04c0.03-0.26,0.03-0.26-0.32-0.04c-0.26,0.17-0.29,0.16-0.72-0.07c-0.57-0.31-0.72-0.6-0.28-0.56
			c0.05,0.01,0.1-0.04,0.12-0.11c0.03-0.09,0.07-0.07,0.15,0.07c0.09,0.15,0.16,0.18,0.34,0.12c0.25-0.08,0.27-0.12,0.13-0.34
			c-0.1-0.16-0.06-0.15,0.18,0.03c0.09,0.07,0.1,0.05,0.07-0.1c-0.03-0.13-0.01-0.18,0.08-0.18c0.08,0,0.11-0.05,0.08-0.15
			c-0.02-0.08,0-0.18,0.03-0.21c0.05-0.04,0.04-0.1-0.02-0.2c-0.08-0.13-0.08-0.16,0.04-0.39c0.2-0.37,0.16-0.45-0.13-0.27
			c-0.73,0.45-0.99,0.48-1.17,0.11c-0.1-0.21-0.11-0.26-0.04-0.31c0.05-0.03,0.16-0.01,0.25,0.06c0.24,0.17,0.29,0,0.09-0.31
			c-0.14-0.22-0.15-0.26-0.06-0.24c0.19,0.03,0.31-0.01,0.31-0.12c0-0.06-0.04-0.11-0.1-0.11c-0.08-0.01-0.08-0.03,0.02-0.1
			c0.06-0.05,0.13-0.17,0.15-0.26c0.03-0.15,0.02-0.16-0.09-0.04c-0.19,0.21-1.35,0.18-1.59-0.04c-0.17-0.15-0.18-0.18-0.06-0.18
			c0.11-0.01,0.13-0.05,0.1-0.23c-0.03-0.2-0.02-0.21,0.06-0.07c0.12,0.2,0.29,0.31,0.29,0.19c0-0.05,0.05-0.07,0.11-0.04
			c0.06,0.03,0.11,0,0.11-0.06c0-0.07,0.06-0.12,0.14-0.12c0.18,0,0.18-0.11-0.04-0.44l-0.18-0.28l0.3,0.09
			c0.31,0.09,0.42,0.05,0.36-0.13c-0.06-0.18,0.09-0.41,0.26-0.41c0.19,0,0.22-0.18,0.04-0.25c-0.07-0.03-0.04-0.05,0.07-0.04
			c0.13,0.01,0.19-0.03,0.18-0.11c-0.01-0.07,0.01-0.13,0.05-0.13c0.04,0,0.04-0.05-0.01-0.17c-0.05-0.11-0.12-0.15-0.21-0.11
			c-0.08,0.03-0.11,0.03-0.07,0c0.13-0.11,0.07-0.28-0.07-0.21c-0.11,0.05-0.13,0.03-0.1-0.11c0.03-0.13,0.01-0.15-0.04-0.09
			c-0.04,0.05-0.14,0.1-0.22,0.11c-0.08,0.01-0.2,0.06-0.28,0.1l-0.14,0.07l0.15-0.25c0.18-0.29,0.2-0.46,0.05-0.3
			c-0.15,0.16-0.27,0.15-0.18-0.02c0.12-0.24,0.08-0.43-0.05-0.2c-0.07,0.12-0.2,0.28-0.29,0.37c-0.34,0.31-1.25-0.11-1.25-0.58
			c0-0.09-0.03-0.23-0.07-0.3c-0.04-0.09-0.05-0.13-0.01-0.13c0.03,0,0.07,0.07,0.09,0.16c0.02,0.1,0.1,0.15,0.21,0.15
			c0.1-0.01,0.24,0.02,0.31,0.07c0.1,0.06,0.12,0.04,0.12-0.15V42.6l0.19,0.21c0.14,0.16,0.2,0.18,0.23,0.09
			c0.02-0.07,0.01-0.17-0.04-0.23c-0.07-0.09,0.26-0.07,0.48,0.02c0.02,0.01,0.06,0,0.1-0.02c-0.01-0.02-0.02-0.04-0.04-0.08
			c-0.02-0.06-0.01-0.11,0.02-0.11c0.03,0,0.06,0.05,0.06,0.11c0,0.03,0,0.05,0,0.07c0.01-0.01,0.03-0.01,0.04-0.02
			c0.12-0.07,0.12-0.09,0.04-0.27c-0.08-0.17-0.08-0.19,0.05-0.26c0.16-0.08,0.19-0.28,0.05-0.29c-0.06,0-0.04-0.06,0.07-0.15
			c0.09-0.08,0.24-0.27,0.33-0.41l0.16-0.26l-0.2-0.07c-0.11-0.04-0.21-0.12-0.21-0.18c0-0.06-0.07-0.08-0.15-0.03
			c-0.13,0.06-0.15,0.05-0.08-0.09c0.11-0.25-0.05-0.33-0.22-0.1c-0.08,0.11-0.25,0.18-0.41,0.19c-0.22,0.01-0.25-0.01-0.16-0.1
			c0.11-0.09,0.12-0.18,0.07-0.59c0-0.02-0.09,0.07-0.19,0.19c-0.1,0.12-0.27,0.22-0.38,0.22c-0.35,0-0.95-0.45-1.33-0.99
			c-0.15-0.21-0.12-0.25,0.05-0.08c0.09,0.09,0.11,0.08,0.11-0.08c0-0.18,0-0.19,0.06,0c0.03,0.1,0.08,0.16,0.11,0.13
			c0.03-0.03,0.11,0.02,0.19,0.12C34,39.72,34,39.71,34,39.41c0-0.17,0.02-0.25,0.04-0.19c0.05,0.14,0.26,0.37,0.34,0.37
			c0.03,0,0.06-0.11,0.07-0.24c0.01-0.23,0.01-0.23,0.04,0.03c0.02,0.15,0.05,0.25,0.06,0.22c0.01-0.02,0.08,0.01,0.14,0.07
			c0.09,0.1,0.13,0.08,0.19-0.08c0.04-0.11,0.1-0.18,0.12-0.14c0.03,0.03,0.03-0.07,0.01-0.22C35,38.95,35,38.94,35.15,39.05
			c0.18,0.13,0.24,0.07,0.14-0.16c-0.06-0.14-0.05-0.16,0.03-0.16c0.09,0,0.09-0.01,0-0.2c-0.05-0.11-0.07-0.23-0.04-0.27
			c0.03-0.03,0.1,0.03,0.15,0.15c0.09,0.18,0.14,0.2,0.36,0.11c0.01,0-0.01-0.07-0.04-0.15c-0.07-0.17-0.03-0.29,0.11-0.29
			c0.05,0,0.16-0.1,0.23-0.21l0.13-0.21l-0.17-0.02c-0.09-0.01-0.23-0.01-0.3,0c-0.12,0.02-0.13,0-0.06-0.15
			c0.12-0.28,0.04-0.28-0.18,0c-0.23,0.31-0.38,0.36-0.26,0.1c0.06-0.14,0.06-0.15-0.02-0.1c-0.11,0.08-0.12-0.07-0.03-0.25
			c0.14-0.28-0.01-0.23-0.19,0.05c-0.35,0.56-0.39,0.58-0.78,0.35c-0.41-0.24-0.69-0.54-0.77-0.84c-0.05-0.18-0.04-0.21,0.08-0.19
			c0.08,0.01,0.15,0.09,0.17,0.18c0.02,0.09,0.08,0.17,0.15,0.18c0.09,0.01,0.11-0.03,0.09-0.21c-0.03-0.21-0.02-0.2,0.1,0.06
			c0.07,0.16,0.19,0.29,0.26,0.29c0.11,0,0.12-0.04,0.09-0.31c-0.04-0.41,0.09-0.52,0.23-0.19c0.09,0.22,0.41,0.38,0.41,0.2
			c0-0.04-0.08-0.21-0.18-0.37c-0.14-0.22-0.16-0.29-0.08-0.3c0.05,0,0.11,0.07,0.13,0.15c0.02,0.09,0.05,0.14,0.08,0.11
			c0.03-0.03,0.06-0.01,0.08,0.05c0.02,0.06,0.1,0.11,0.18,0.11c0.14,0,0.14-0.01,0.04-0.15c-0.1-0.15-0.1-0.16,0.05-0.27
			c0.09-0.06,0.19-0.12,0.22-0.12c0.04,0,0-0.07-0.07-0.15c-0.14-0.15-0.13-0.15,0.08-0.11c0.14,0.02,0.25-0.02,0.3-0.11
			c0.12-0.24,0.04-0.37-0.24-0.37c-0.15,0-0.24-0.04-0.22-0.11c0.07-0.22-0.14-0.22-0.37-0.01c-0.29,0.27-0.34,0.28-0.3,0.06
			c0.02-0.1,0-0.16-0.06-0.16c-0.06,0-0.08-0.06-0.06-0.16c0.04-0.19,0.02-0.2-0.17-0.06c-0.12,0.09-0.13,0.07-0.11-0.11
			c0.03-0.22-0.06-0.29-0.13-0.1c-0.02,0.06-0.14,0.21-0.26,0.34c-0.2,0.2-0.26,0.21-0.45,0.09c-0.19-0.11-0.21-0.15-0.13-0.23
			c0.05-0.06,0.1-0.18,0.1-0.27c0-0.13-0.06-0.16-0.25-0.13c-0.19,0.02-0.28-0.02-0.36-0.18c-0.12-0.24-0.24-1.09-0.16-1.18
			c0.05-0.06,0.07,0.17,0.05,0.47c-0.01,0.08,0.04,0.28,0.11,0.46c0.1,0.26,0.14,0.3,0.2,0.2c0.04-0.07,0.08-0.25,0.08-0.41
			c0.01-0.22,0.01-0.24,0.03-0.07c0.04,0.33,0.19,0.59,0.33,0.59c0.11,0,0.12-0.03,0.08-0.21c-0.07-0.26-0.07-0.36,0-0.28
			c0.03,0.04,0.06,0.02,0.06-0.05s0.03-0.11,0.06-0.11c0.03,0,0.06,0.07,0.06,0.15c0,0.19,0.33,0.73,0.4,0.65
			c0.03-0.03,0.05-0.15,0.05-0.27c0-0.11,0.03-0.21,0.06-0.21c0.03,0,0.04-0.06,0.02-0.13c-0.02-0.07,0.01-0.02,0.07,0.11
			c0.06,0.14,0.12,0.21,0.15,0.17c0.02-0.04,0.1-0.1,0.16-0.11c0.15-0.04,0.38-0.25,0.38-0.36c0-0.04-0.07-0.14-0.17-0.21
			c-0.09-0.07-0.16-0.19-0.15-0.26c0.01-0.07-0.06-0.13-0.16-0.13c-0.2-0.01-0.48-0.27-0.37-0.34c0.04-0.02,0.07-0.11,0.07-0.2
			c0-0.17-0.28-0.21-0.37-0.06c-0.08,0.15-0.3,0.25-0.3,0.14c0-0.06,0.06-0.13,0.14-0.17c0.12-0.06,0.13-0.1,0.08-0.23
			c-0.06-0.13-0.05-0.16,0.04-0.16c0.12,0,0.34-0.29,0.28-0.39c-0.02-0.04-0.15-0.09-0.29-0.12c-0.28-0.06-0.28-0.06-0.2-0.36
			c0.05-0.19,0.07-0.2,0.19-0.04c0.12,0.16,0.14,0.15,0.17-0.06c0.02-0.12,0.06-0.2,0.09-0.16c0.03,0.03,0.05,0.01,0.05-0.05
			s0.05-0.11,0.11-0.11s0.11-0.07,0.11-0.15c0-0.16-0.12-0.28-0.28-0.28c-0.13,0-0.14-0.2-0.02-0.29c0.05-0.03,0.07-0.1,0.06-0.14
			c-0.01-0.04,0.04-0.14,0.11-0.22c0.19-0.19,0.14-0.37-0.1-0.37h-0.2l0.14-0.36c0.11-0.28,0.13-0.38,0.07-0.48
			c-0.05-0.1-0.11-0.05-0.25,0.26c-0.17,0.36-0.19,0.37-0.25,0.19c-0.04-0.11-0.09-0.19-0.12-0.19c-0.07,0-0.24,0.6-0.28,0.96
			c-0.03,0.27-0.54,1.11-0.62,1.02c-0.02-0.03-0.03-0.31-0.03-0.64c0.01-0.33-0.01-0.59-0.04-0.59c-0.03,0-0.04-0.18-0.03-0.4
			c0.01-0.33,0.04-0.41,0.17-0.48c0.14-0.07,0.15-0.05,0.12,0.12c-0.05,0.31,0.09,0.39,0.19,0.11c0.06-0.15,0.11-0.2,0.13-0.13
			c0.04,0.12,0.26,0.06,0.26-0.07c0-0.1-0.28-0.6-0.33-0.59c-0.02,0.01-0.08-0.01-0.13-0.04c-0.16-0.08-0.06-0.23,0.11-0.16
			c0.28,0.11,0.53,0.09,0.56-0.05c0.01-0.07-0.01-0.13-0.06-0.13c-0.04,0-0.11-0.07-0.15-0.16c-0.04-0.09-0.09-0.13-0.12-0.1
			c-0.03,0.03-0.05,0.02-0.05-0.03c0-0.05,0.08-0.18,0.17-0.3c0.17-0.22,0.22-0.38,0.11-0.38c-0.1,0-0.47,0.33-0.52,0.46
			c-0.03,0.08-0.03,0.04-0.01-0.1c0.02-0.13,0.01-0.26-0.02-0.3c-0.06-0.07-0.29,0.62-0.29,0.88c0,0.1-0.02,0.14-0.04,0.1
			c-0.02-0.04-0.07,0.01-0.11,0.11c-0.07,0.16-0.07,0.12-0.05-0.34c0.02-0.43,0.08-0.63,0.28-1.09c0.14-0.31,0.25-0.64,0.25-0.72
			c0-0.26-0.28-0.09-0.34,0.2c-0.09,0.47-0.19,0.31-0.17-0.28c0.02-0.42,0-0.58-0.1-0.78l-0.12-0.24l-0.01,0.26
			c0,0.14-0.01,0.58-0.01,0.97l-0.01,0.71l-0.21-0.41c-0.24-0.48-0.27-0.5-0.27-0.17c0,0.13,0.1,0.44,0.21,0.69
			c0.14,0.3,0.22,0.69,0.23,1.09c0.01,0.38-0.01,0.55-0.05,0.5c-0.03-0.04-0.06-0.14-0.06-0.23c0-0.09-0.03-0.15-0.06-0.15
			c-0.03,0-0.06-0.19-0.06-0.42c0-0.48-0.14-0.81-0.23-0.54c-0.03,0.08-0.04,0.21-0.03,0.28c0.03,0.16-0.13,0.05-0.24-0.15
			c-0.04-0.08-0.11-0.14-0.15-0.14c-0.15,0-0.13,0.3,0.06,0.71c0.22,0.48,0.23,0.58,0.09,0.65c-0.07,0.04-0.1,0.12-0.08,0.26
			c0.03,0.23,0.18,0.27,0.28,0.08c0.08-0.15,0.08-0.14,0.09,0.27c0.01,0.34,0,0.34-0.19,0.13c-0.19-0.21-0.22-0.2-0.22,0.04
			c0,0.11,0.08,0.33,0.18,0.48c0.14,0.21,0.15,0.26,0.06,0.22c-0.08-0.04-0.13,0-0.15,0.11c-0.05,0.24-0.09,0.22-0.46-0.25
			c-0.18-0.23-0.36-0.4-0.39-0.37c-0.12,0.09-0.04,0.5,0.12,0.67l0.16,0.17l-0.15,0.03c-0.08,0.02-0.16,0.1-0.18,0.18
			c-0.03,0.16,0.11,0.31,0.19,0.21c0.03-0.03,0.05-0.01,0.05,0.05c0,0.06,0.04,0.12,0.1,0.12c0.07,0.01,0.08,0.02,0.02,0.07
			c-0.06,0.05-0.05,0.11,0.05,0.25l0.13,0.19l-0.23,0.08c-0.24,0.08-0.3,0.25-0.15,0.48c0.05,0.09,0.11,0.1,0.17,0.03
			c0.11-0.11,0.3-0.05,0.3,0.1c0,0.05,0.05,0.1,0.11,0.1c0.06,0,0.11-0.05,0.11-0.11c0-0.06,0.06-0.11,0.13-0.1l0.09,0l-0.14,0.22
			c-0.11,0.17-0.12,0.24-0.06,0.31c0.08,0.1,0.23,0.03,0.3-0.15c0.03-0.07,0.03,0.02,0.01,0.18c-0.03,0.25-0.02,0.3,0.08,0.3
			c0.06,0,0.12-0.06,0.12-0.14c0-0.09,0.01-0.09,0.04,0.02c0.02,0.11,0.05,0.08,0.1-0.11l0.07-0.26l0.07,0.3
			c0.04,0.16,0.05,0.33,0.03,0.38c-0.02,0.04-0.23,0.1-0.45,0.12c-0.38,0.04-0.43,0.01-0.68-0.29c-0.25-0.3-0.43-0.35-0.43-0.12
			c0,0.05,0.07,0.17,0.16,0.26l0.16,0.17l-0.2-0.07c-0.2-0.07-0.53-0.4-0.67-0.67c-0.04-0.08-0.12-0.14-0.18-0.14
			c-0.12,0-0.15,0.21-0.05,0.38c0.03,0.07-0.05,0.12-0.24,0.14c-0.16,0.02-0.31,0.06-0.34,0.09c-0.19,0.22,0.27,0.62,0.6,0.53
			l0.23-0.06l-0.16,0.17c-0.1,0.1-0.15,0.25-0.14,0.36c0.03,0.27,0.27,0.18,0.43-0.16c0.07-0.15,0.17-0.26,0.23-0.23
			c0.08,0.04,0.07,0.07-0.05,0.17c-0.19,0.15-0.25,0.33-0.13,0.42c0.05,0.04,0.08,0.13,0.06,0.21c-0.02,0.08,0.01,0.17,0.05,0.2
			c0.04,0.03,0.08,0.02,0.08-0.03c0-0.09,0.18-0.24,0.32-0.27c0.04-0.01,0.12-0.11,0.18-0.22c0.07-0.11,0.12-0.17,0.12-0.13
			c0,0.11-0.12,0.33-0.27,0.49c-0.07,0.07-0.13,0.18-0.13,0.24c0,0.21,0.17,0.24,0.28,0.05c0.1-0.18,0.11-0.18,0.08,0.04
			c-0.04,0.32,0.07,0.29,0.19-0.05c0.07-0.21,0.11-0.24,0.14-0.14c0.04,0.12,0.06,0.12,0.1,0c0.03-0.08,0.1-0.13,0.16-0.12
			c0.23,0.06,0.53-0.34,0.54-0.7c0-0.2,0.01-0.19,0.05,0.04c0.03,0.22,0.01,0.33-0.16,0.62c-0.11,0.19-0.36,0.51-0.55,0.7
			l-0.35,0.35l-0.27-0.26c-0.15-0.14-0.3-0.27-0.34-0.29c-0.1-0.04-0.09,0.17,0.03,0.43c0.09,0.2,0.09,0.21,0,0.08
			c-0.05-0.08-0.12-0.12-0.14-0.08c-0.03,0.03-0.12-0.01-0.21-0.1c-0.21-0.21-0.27-0.2-0.24,0.03c0.03,0.15,0,0.19-0.14,0.18
			c-0.09-0.01-0.18-0.04-0.2-0.07c-0.07-0.13-0.25,0.06-0.25,0.27c0,0.17,0.03,0.21,0.12,0.16c0.11-0.06,0.11-0.05,0.02,0.15
			c-0.1,0.22-0.09,0.25,0.13,0.21c0.1-0.02,0.12,0.02,0.09,0.17c-0.03,0.15-0.01,0.18,0.11,0.14c0.12-0.04,0.14-0.02,0.11,0.15
			c-0.03,0.22,0,0.25,0.14,0.11c0.18-0.18,0.35,0.25,0.2,0.51c-0.06,0.11-0.08,0.11-0.11-0.01c-0.02-0.08-0.12-0.16-0.23-0.16
			c-0.11-0.01-0.18,0.03-0.17,0.08c0.02,0.05-0.02,0.07-0.08,0.04c-0.14-0.07-0.15,0.09-0.01,0.26c0.07,0.09,0.1,0.21,0.08,0.4
			c-0.03,0.34-0.04,0.35-0.25,0.01c-0.09-0.15-0.2-0.27-0.25-0.27c-0.09,0-0.1,0.05-0.03,0.32c0.06,0.21,0.02,0.22-0.41,0.06
			c-0.14-0.05-0.21-0.04-0.21,0.04c0,0.14,0.29,0.45,0.43,0.45c0.08,0,0.08,0.03,0.02,0.16c-0.06,0.13-0.05,0.18,0.01,0.22
			c0.05,0.03,0.11,0.05,0.13,0.04c0.12-0.04,0.19,0.02,0.18,0.15c-0.01,0.08,0.05,0.13,0.14,0.13c0.12,0,0.16,0.05,0.16,0.22
			c0,0.21,0.01,0.21,0.11-0.03c0.09-0.2,0.11-0.22,0.11-0.07c0,0.1,0.03,0.15,0.06,0.12c0.03-0.04,0.08,0.06,0.11,0.21
			c0.03,0.15,0.09,0.31,0.14,0.34c0.05,0.03,0.09,0.13,0.09,0.21c0,0.08,0.04,0.15,0.09,0.15c0.05,0,0.12,0.08,0.16,0.19
			c0.07,0.18,0.08,0.18,0.21-0.03l0.13-0.21l-0.1,0.23c-0.06,0.14-0.25,0.3-0.49,0.41c-0.5,0.23-0.62,0.22-0.82-0.03
			c-0.19-0.24-0.28-0.19-0.23,0.11c0.03,0.17,0.01,0.21-0.13,0.21c-0.09,0-0.19-0.05-0.22-0.11c-0.04-0.07-0.09-0.06-0.17,0.04
			c-0.1,0.15-0.1,0.16,0.07,0.35c0.13,0.14,0.17,0.25,0.15,0.4c-0.02,0.13,0,0.19,0.04,0.18c0.16-0.04,0.23,0.01,0.2,0.17
			c-0.05,0.27,0.15,0.4,0.31,0.19c0.1-0.14,0.12-0.14,0.07-0.02c-0.1,0.23,0,0.47,0.14,0.38c0.21-0.13,0.27,0.08,0.06,0.22
			c-0.27,0.19-0.54,0.18-0.64-0.01c-0.11-0.21-0.28-0.22-0.24,0c0.03,0.13-0.01,0.15-0.22,0.09c-0.3-0.08-0.34,0.1-0.06,0.3
			c0.14,0.09,0.18,0.19,0.17,0.32c-0.03,0.22,0.15,0.35,0.29,0.2c0.07-0.08,0.09-0.05,0.09,0.17c0,0.22,0.02,0.26,0.12,0.21
			c0.1-0.05,0.11-0.03,0.08,0.13c-0.03,0.15-0.02,0.18,0.08,0.14c0.06-0.03,0.11-0.01,0.11,0.04c0,0.19,0.12,0.09,0.27-0.21
			c0.18-0.37,0.29-0.45,0.42-0.32c0.15,0.15,0.12,0.28-0.07,0.22c-0.19-0.06-0.22,0.11-0.08,0.5c0.08,0.23,0.08,0.24-0.02,0.24
			c-0.06,0-0.15,0.07-0.2,0.16C29.96,44.92,29.89,45,29.84,45c-0.05,0-0.1,0.05-0.12,0.1c-0.02,0.06-0.13,0.1-0.25,0.1
			c-0.12,0-0.25,0.03-0.29,0.08c-0.04,0.05-0.16,0.08-0.26,0.06c-0.15-0.02-0.18,0.02-0.2,0.22c-0.01,0.18-0.06,0.25-0.16,0.26
			c-0.08,0.01-0.17,0.03-0.2,0.04c-0.03,0.02-0.1,0.02-0.16,0.01c-0.05-0.01-0.1,0.02-0.1,0.07c0,0.14,0.31,0.47,0.45,0.47
			c0.12,0,0.13,0.01,0.03,0.22c-0.1,0.21-0.1,0.22,0.05,0.22c0.11,0,0.14,0.04,0.11,0.17c-0.03,0.14,0,0.16,0.13,0.09
			c0.09-0.04,0.18-0.07,0.19-0.07c0.18,0.01,0.22,0.04,0.19,0.18c-0.06,0.3,0.09,0.29,0.17-0.01c0.08-0.28,0.08-0.29,0.09-0.06
			c0,0.13,0.02,0.25,0.05,0.25c0.35,0.1,0.4,0.06,0.47-0.26l0.07-0.33l0.05,0.26l0.05,0.26l0.11-0.27c0.11-0.27,0.11-0.27,0.11-0.03
			c0,0.33,0.1,0.31,0.15-0.03c0.02-0.15,0.06-0.27,0.09-0.27c0.03,0,0.04,0.05,0.01,0.12c-0.03,0.08,0.02,0.1,0.14,0.04
			c0.14-0.06,0.18-0.04,0.16,0.06c-0.03,0.2-0.39,0.54-0.56,0.54c-0.08,0-0.16,0.06-0.18,0.14c-0.02,0.08-0.13,0.13-0.29,0.13
			c-0.14,0-0.26,0.03-0.26,0.07c0,0.21,0.2,0.44,0.35,0.4c0.09-0.02,0.17,0.01,0.18,0.06c0.02,0.18-0.32,0.28-1.12,0.34
			c-0.91,0.07-1.27,0.14-1.27,0.26c0,0.05-0.06,0.06-0.14,0.03c-0.08-0.03-0.14,0-0.14,0.06c0,0.15,0.18,0.34,0.33,0.34
			c0.06,0,0.12,0.05,0.12,0.11c0,0.06-0.03,0.11-0.06,0.11c-0.03,0-0.12,0.1-0.18,0.23l-0.12,0.23l0.18-0.05
			c0.12-0.03,0.18,0,0.18,0.08c0,0.08,0.05,0.11,0.11,0.08c0.06-0.03,0.11,0,0.11,0.06c0,0.18,0.14,0.15,0.23-0.04
			c0.04-0.09,0.1-0.16,0.13-0.16c0.03,0,0.02,0.09-0.03,0.2c-0.05,0.11-0.09,0.23-0.09,0.27c0,0.12,0.22,0.09,0.25-0.03
			c0.06-0.17,0.13-0.13,0.17,0.11c0.05,0.28,0.11,0.27,0.31-0.01l0.16-0.22l-0.04,0.33c-0.04,0.41,0.06,0.44,0.29,0.09
			c0.15-0.23,0.16-0.23,0.1-0.01c-0.07,0.25-0.04,0.37,0.08,0.29c0.04-0.03,0.12,0,0.16,0.07c0.06,0.09,0.08,0.1,0.08,0.01
			c0-0.07,0.04-0.12,0.08-0.12c0.05,0,0.08,0.07,0.08,0.15c0,0.11,0.05,0.15,0.16,0.12c0.59-0.13-0.17,0.53-0.86,0.74
			c-0.45,0.14-0.49,0.13-0.64-0.05c-0.09-0.11-0.19-0.2-0.23-0.2c-0.12,0-0.08,0.22,0.06,0.33c0.09,0.08,0.06,0.09-0.13,0.03
			c-0.14-0.04-0.32-0.07-0.4-0.06c-0.08,0.01-0.27-0.06-0.42-0.14c-0.15-0.09-0.29-0.14-0.3-0.12c-0.06,0.11,0.3,0.56,0.51,0.62
			l0.24,0.07l-0.21,0.01c-0.15,0.01-0.21,0.06-0.21,0.18c0,0.09,0.04,0.17,0.1,0.18c0.05,0.01,0.12,0.03,0.16,0.04
			c0.03,0.01,0.09,0.03,0.14,0.04c0.06,0.01,0.05,0.05-0.03,0.17c-0.14,0.2-0.07,0.34,0.08,0.18c0.1-0.1,0.12-0.09,0.12,0.06
			c0,0.14,0.04,0.17,0.18,0.13c0.1-0.03,0.23-0.09,0.3-0.13c0.11-0.08,0.11-0.08,0,0.09c-0.11,0.17-0.09,0.21,0.1,0.18
			c0.06-0.01,0.1,0.06,0.1,0.15c0,0.23,0.05,0.21,0.18-0.07l0.11-0.24l-0.09,0.3c-0.05,0.16-0.09,0.34-0.09,0.41
			c0,0.17,0.28,0.04,0.41-0.18c0.11-0.19,0.11-0.19,0.07,0.08c-0.06,0.37-0.13,0.45-0.65,0.75c-0.43,0.25-0.46,0.25-0.69,0.08
			c-0.25-0.19-0.61-0.24-0.61-0.09c0,0.05,0.03,0.15,0.07,0.22c0.05,0.09-0.03,0.07-0.23-0.04c-0.17-0.09-0.34-0.14-0.39-0.11
			c-0.07,0.05-0.07,0.11,0.04,0.33l0.13,0.26l-0.19-0.11c-0.25-0.14-0.54-0.14-0.59,0c-0.04,0.14,0.33,0.44,0.56,0.44h0.18
			l-0.17,0.25c-0.16,0.25-0.16,0.58,0,0.46c0.05-0.04,0.08,0.03,0.08,0.21c0,0.19,0.03,0.27,0.11,0.27c0.06,0,0.15,0.07,0.2,0.17
			c0.07,0.14,0.11,0.14,0.2,0.03c0.06-0.08,0.12-0.18,0.12-0.22c0-0.05,0.04,0,0.1,0.11c0.11,0.2,0.14,0.46,0.05,0.46
			c-0.03,0-0.03,0.05-0.01,0.12c0.03,0.08-0.01,0.1-0.14,0.05c-0.11-0.05-0.18-0.03-0.18,0.04c0,0.07-0.11,0.12-0.25,0.12
			c-0.26,0-0.31,0.09-0.17,0.33c0.06,0.09,0.18,0.11,0.35,0.07l0.27-0.06l-0.21,0.21c-0.15,0.15-0.2,0.27-0.18,0.38
			c0.02,0.11,0.07,0.14,0.13,0.1c0.05-0.04,0.13-0.08,0.18-0.1c0.05-0.01,0.05-0.01,0.01,0.02c-0.14,0.09-0.07,0.27,0.08,0.2
			c0.11-0.05,0.13-0.04,0.07,0.04c-0.15,0.19-0.02,0.25,0.16,0.07c0.1-0.1,0.17-0.13,0.17-0.07c0,0.06-0.03,0.13-0.07,0.15
			c-0.04,0.03-0.05,0.09-0.03,0.14c0.02,0.05,0.12,0.04,0.21-0.03c0.13-0.1,0.16-0.09,0.13,0.03c-0.02,0.11,0,0.13,0.07,0.08
			c0.09-0.06,0.09-0.05,0.03,0.08c-0.06,0.12-0.25,0.15-0.89,0.13c-0.49-0.01-0.82,0.02-0.82,0.08c0,0.06,0.04,0.11,0.09,0.11
			c0.05,0,0.12,0.07,0.17,0.15c0.07,0.13,0.07,0.16-0.01,0.22c-0.05,0.04-0.17,0.06-0.27,0.06c-0.21,0-0.35,0.14-0.3,0.3
			c0.06,0.19,0.34,0.23,0.57,0.07c0.31-0.21,0.33-0.2,0.17,0.11c-0.2,0.38-0.18,0.61,0.03,0.5c0.09-0.05,0.19-0.12,0.23-0.16
			c0.03-0.04,0.06,0.02,0.07,0.13c0,0.11,0.01,0.25,0.02,0.32c0,0.07,0.02,0.16,0.04,0.2c0.04,0.09,0.39-0.28,0.39-0.41
			c0-0.05,0.02-0.06,0.05-0.03c0.03,0.04,0.03,0.16,0,0.34c-0.03,0.15-0.05,0.32-0.05,0.38c0,0.14,0.27-0.23,0.54-0.74
			c0.2-0.38,0.23-0.32,0.04,0.1c-0.05,0.1-0.07,0.27-0.05,0.37c0.03,0.16,0.05,0.15,0.18-0.08l0.15-0.26l-0.02,0.27
			c-0.02,0.25-0.06,0.28-0.47,0.41c-0.29,0.09-0.48,0.11-0.54,0.04c-0.14-0.17-0.45-0.27-0.45-0.15c0,0.06,0.04,0.13,0.1,0.16
			c0.05,0.03-0.03,0.03-0.18,0c-0.23-0.04-0.27-0.02-0.21,0.09c0.11,0.21,0.08,0.29-0.07,0.23c-0.18-0.07-0.44,0.06-0.4,0.19
			c0.02,0.06,0.09,0.11,0.16,0.11c0.24,0,0.21,0.15-0.09,0.38c-0.5,0.39-0.39,0.68,0.12,0.33c0.26-0.18,0.36-0.15,0.17,0.05
			c-0.06,0.07-0.12,0.2-0.12,0.29c0,0.13,0.03,0.15,0.15,0.1c0.13-0.06,0.14-0.05,0.08,0.1c-0.15,0.35,0.01,0.35,0.26,0
			c0.12-0.16,0.12-0.16,0.09,0.08c-0.03,0.23-0.02,0.24,0.06,0.1c0.08-0.13,0.09-0.13,0.06,0.05c-0.03,0.18-0.02,0.17,0.1-0.04
			c0.14-0.25,0.23-0.23,0.18,0.04c-0.04,0.22,0.09,0.19,0.31-0.06c0.1-0.12,0.18-0.16,0.18-0.09c0,0.07,0.06,0.09,0.16,0.05
			c0.11-0.05,0.13-0.04,0.07,0.03c-0.05,0.05-0.22,0.15-0.4,0.22c-0.37,0.15-0.48,0.27-0.43,0.44c0.04,0.12,0.12,0.11,0.45-0.07
			c0.09-0.04,0.07,0.02-0.07,0.29c-0.1,0.19-0.18,0.36-0.18,0.39c0,0.11,0.31-0.03,0.49-0.21c0.2-0.2,0.23-0.14,0.1,0.19
			c-0.11,0.29-0.1,0.42,0.03,0.35c0.07-0.04,0.11,0,0.11,0.1c0,0.2,0.05,0.19,0.18-0.04c0.1-0.18,0.11-0.18,0.09,0.03
			c-0.03,0.33,0.28,0.23,0.45-0.14l0.13-0.29l-0.04,0.35c-0.05,0.47,0.09,0.48,0.31,0.03c0.09-0.18,0.17-0.33,0.18-0.33
			c0.01,0,0.02,0.13,0.03,0.28c0.01,0.43,0.1,0.54,0.22,0.28c0.09-0.21,0.11-0.21,0.17-0.04c0.07,0.17,0.08,0.17,0.11-0.05
			c0.02-0.14,0.07-0.21,0.11-0.18c0.05,0.04,0.09-0.05,0.11-0.23c0.03-0.2,0.05-0.25,0.08-0.16c0.02,0.08,0.1,0.15,0.16,0.17
			c0.09,0.03,0.15-0.07,0.24-0.45c0.12-0.49,0.25-0.68,0.19-0.27c-0.04,0.26-0.01,0.27,0.17,0.04c0.08-0.1,0.14-0.28,0.14-0.41
			c0.01-0.19,0.01-0.19,0.03-0.04c0.04,0.32,0.13,0.1,0.13-0.33c0-0.33,0.01-0.36,0.06-0.21c0.03,0.1,0.11,0.19,0.18,0.19
			c0.11,0,0.11,0.04,0.08,0.84c-0.03,0.56-0.08,1.02-0.18,1.37c-0.05,0.21-0.1,0.39-0.12,0.49h1.41c0.06-0.1,0.03-0.26-0.03-0.56
			c-0.1-0.46-0.14-1.4-0.06-1.45c0.03-0.02,0.1,0.11,0.16,0.29c0.1,0.34,0.23,0.46,0.17,0.17c-0.07-0.33,0.04-0.15,0.11,0.2
			c0.06,0.28,0.11,0.36,0.21,0.35c0.07-0.01,0.17,0.03,0.21,0.09c0.06,0.08,0.09,0.08,0.1-0.01c0.02-0.09,0.06-0.06,0.13,0.08
			c0.15,0.28,0.22,0.27,0.18-0.03c-0.02-0.14-0.01-0.2,0.02-0.13c0.07,0.16,0.25,0.28,0.25,0.16c0-0.11,0.31-0.07,0.48,0.06
			c0.09,0.07,0.1,0.05,0.07-0.09c-0.02-0.1-0.01-0.19,0.03-0.22c0.05-0.04,0.05-0.08,0-0.19c-0.13-0.26-0.08-0.3,0.14-0.09
			c0.23,0.23,0.3,0.2,0.19-0.09c-0.06-0.15-0.06-0.17,0-0.06c0.04,0.07,0.11,0.1,0.15,0.07c0.04-0.03,0.08-0.01,0.08,0.04
			c0,0.05,0.03,0.19,0.08,0.31c0.07,0.18,0.09,0.19,0.17,0.06c0.08-0.13,0.1-0.11,0.18,0.11L36.5,66l0.05-0.26
			c0.05-0.24,0.06-0.25,0.12-0.07c0.09,0.23,0.13,0.24,0.24,0.02c0.07-0.13,0.07-0.2,0.02-0.33c-0.04-0.09-0.05-0.16-0.03-0.16
			c0.02,0,0.01-0.11-0.03-0.24c-0.05-0.2-0.03-0.19,0.13,0.08c0.35,0.61,0.38,0.63,0.48,0.44c0.05-0.1,0.07-0.23,0.05-0.31
			c-0.02-0.08,0.01-0.06,0.07,0.03c0.3,0.46,0.6,0.55,0.4,0.12c-0.09-0.2-0.09-0.21,0.06-0.28l0.15-0.07l-0.17-0.26
			c-0.22-0.34-0.1-0.34,0.21,0c0.14,0.15,0.28,0.27,0.32,0.27c0.11,0,0.08-0.17-0.06-0.3c-0.11-0.11-0.11-0.12,0.1-0.13
			c0.13,0,0.28-0.08,0.34-0.17c0.1-0.15,0.1-0.16-0.06-0.16c-0.24-0.01-1.1-0.31-1.28-0.45c-0.22-0.17-0.26-0.44-0.04-0.28
			c0.19,0.14,0.29,0.02,0.15-0.17c-0.08-0.11-0.06-0.13,0.16-0.09c0.28,0.04,0.33-0.09,0.13-0.29c-0.11-0.11-0.09-0.12,0.15-0.1
			c0.32,0.03,0.41-0.17,0.14-0.31l-0.19-0.09l0.18-0.04c0.22-0.05,0.23-0.16,0.06-0.34c-0.1-0.1-0.06-0.12,0.24-0.07
			c0.34,0.05,0.36,0.05,0.26-0.11c-0.06-0.09-0.15-0.17-0.21-0.17c-0.05,0-0.12-0.05-0.14-0.12c-0.02-0.07,0.01-0.11,0.1-0.1
			c0.24,0.04,0.39,0,0.39-0.1c0-0.05-0.18-0.13-0.4-0.17c-0.22-0.04-0.38-0.11-0.37-0.16c0.02-0.05,0.18-0.15,0.36-0.23
			c0.35-0.15,0.57-0.37,0.5-0.5c-0.04-0.07-0.35,0.03-0.77,0.24c-0.13,0.07-0.13,0.05,0.05-0.25c0.29-0.48,0.13-0.53-0.29-0.09
			c-0.42,0.45-0.66,0.48-1.13,0.17c-0.53-0.35-1.39-1.19-1.45-1.42c-0.08-0.28-0.03-0.28,0.11,0.02c0.06,0.13,0.12,0.2,0.12,0.15
			c0-0.05,0.04-0.03,0.08,0.05c0.07,0.11,0.08,0.1,0.08-0.06c0-0.16,0.03-0.14,0.18,0.12l0.18,0.32l-0.03-0.35
			c-0.03-0.34-0.03-0.35,0.12-0.22c0.08,0.07,0.19,0.18,0.24,0.25c0.22,0.32,0.24,0.32,0.2-0.06c-0.03-0.29-0.02-0.34,0.03-0.23
			c0.1,0.19,0.33,0.17,0.33-0.03c0-0.2,0.09-0.21,0.15-0.02c0.02,0.08,0.12,0.23,0.2,0.34c0.13,0.16,0.16,0.16,0.16,0.03
			c0-0.09-0.05-0.24-0.11-0.35c-0.06-0.11-0.11-0.25-0.11-0.31c0-0.06,0.01-0.08,0.03-0.04c0.02,0.04,0.08-0.01,0.12-0.1
			c0.06-0.12,0.15-0.15,0.3-0.12c0.15,0.04,0.22,0.01,0.24-0.09c0.02-0.11,0.07-0.12,0.22-0.04c0.5,0.27,0.59-0.04,0.11-0.37
			c-0.33-0.23-0.37-0.34-0.06-0.17c0.39,0.21,0.89,0.05,0.68-0.22c-0.05-0.06-0.2-0.11-0.34-0.12c-0.22-0.01-0.23-0.02-0.09-0.08
			c0.09-0.04,0.18-0.14,0.19-0.22c0.02-0.13-0.07-0.14-0.55-0.08c-0.57,0.07-0.57,0.07-0.51-0.14c0.1-0.32,0.03-0.37-0.25-0.19
			c-0.15,0.1-0.35,0.14-0.5,0.11c-0.33-0.08-1.41-0.77-1.54-0.99c-0.13-0.22-0.13-0.38,0.01-0.3c0.06,0.04,0.11,0.02,0.11-0.04
			c0-0.12,0.08-0.08,0.37,0.15c0.09,0.08,0.3,0.14,0.46,0.15c0.16,0,0.31,0.01,0.34,0.02c0.13,0.05,0.15-0.03,0.05-0.25
			c-0.07-0.16-0.05-0.14,0.07,0.05c0.2,0.34,0.25,0.37,0.25,0.13c0-0.14,0.02-0.14,0.14,0.02c0.09,0.11,0.16,0.14,0.18,0.08
			c0.02-0.06,0.11-0.17,0.21-0.24c0.16-0.14,0.16-0.15,0.06-0.3c-0.13-0.18-0.1-0.19,0.11-0.05c0.11,0.08,0.15,0.07,0.15-0.03
			c0-0.09,0.14-0.2,0.37-0.29c0.2-0.08,0.37-0.19,0.37-0.24c0-0.05,0.02-0.06,0.05-0.03c0.03,0.04,0.1,0.02,0.16-0.04
			c0.09-0.09,0.08-0.12-0.06-0.18c-0.12-0.06-0.15-0.12-0.12-0.27c0.02-0.15,0-0.2-0.1-0.23C38.52,53.86,38.59,53.79,38.84,53.63z
			 M37.23,51.74L37.23,51.74c0,0,0.01,0,0.01,0c0.03,0,0.09,0.05,0.14,0.11c0.05,0.06,0.06,0.11,0.03,0.11
			c-0.03,0-0.09-0.05-0.14-0.11C37.23,51.79,37.21,51.75,37.23,51.74z M37.17,49.06c0.01-0.02,0.03-0.03,0.05-0.03
			c0.02,0,0.04,0,0.06,0.02c0.05,0.03,0.03,0.06-0.04,0.06C37.19,49.12,37.15,49.1,37.17,49.06z M34.08,33.04
			c0.05,0,0.07,0.05,0.05,0.11c-0.05,0.14-0.14,0.14-0.14,0C33.99,33.09,34.03,33.04,34.08,33.04z M32.03,30.66
			c-0.06-0.13-0.13-0.23-0.17-0.23c-0.07,0-0.22-0.42-0.18-0.49c0.01-0.01,0.02-0.02,0.04-0.01v0c0.11,0.02,0.37,0.36,0.41,0.57
			C32.2,30.87,32.16,30.94,32.03,30.66z M32.16,29.67c-0.03,0-0.1-0.34-0.13-0.59c-0.01-0.12-0.06-0.29-0.1-0.39
			c-0.05-0.1-0.08-0.25-0.08-0.33c0-0.02,0-0.03,0.01-0.03l0,0c0.03,0,0.09,0.1,0.16,0.25c0.12,0.25,0.17,0.48,0.17,0.72
			C32.18,29.5,32.17,29.67,32.16,29.67z M27.4,56.19c-0.02,0.06-0.06,0.11-0.09,0.11c-0.08,0-0.06-0.08,0.03-0.15
			c0.01-0.01,0.02-0.01,0.03-0.02C27.41,56.12,27.41,56.15,27.4,56.19z M29.01,61.85c-0.07,0-0.07-0.08,0-0.16
			c0.01-0.01,0.01-0.01,0.02-0.02v0c0.02-0.01,0.04,0.02,0.04,0.06C29.07,61.79,29.04,61.85,29.01,61.85z M29.27,57.51
			c-0.11,0.11-0.26,0.15-0.41,0.12c-0.13-0.03-0.23,0-0.21,0.05c0.04,0.14-0.04,0.11-0.21-0.06c-0.09-0.09-0.16-0.11-0.17-0.05
			c-0.01,0.06-0.06,0.07-0.12,0.03c-0.09-0.07-0.09-0.09,0.02-0.33l0.12-0.25h0l0.13,0.27l0.13,0.26l0.1-0.29
			c0.09-0.26,0.1-0.26,0.15-0.09c0.04,0.14,0.07,0.16,0.1,0.05c0.03-0.1,0.05-0.07,0.08,0.1c0.04,0.23,0.14,0.33,0.14,0.13
			c0-0.06,0.07-0.11,0.16-0.11h0.16L29.27,57.51z M29.58,57.31c-0.09,0.05-0.12,0.03-0.07-0.05c0.02-0.05,0.07-0.07,0.1-0.07l0,0
			c0.01,0,0.02,0,0.03,0.01C29.69,57.22,29.66,57.27,29.58,57.31z M30.92,44.02c-0.21,0.21-0.32,0.27-0.32,0.16
			c0-0.07,0.39-0.38,0.47-0.38C31.1,43.8,31.04,43.9,30.92,44.02z M31.46,37.18c-0.09,0.06-0.3,0.14-0.48,0.17
			c-0.28,0.05-0.33,0.03-0.38-0.16c-0.03-0.12-0.06-0.27-0.06-0.34c0-0.08,0.03-0.12,0.07-0.11l0,0c0.04,0.01,0.09,0.06,0.12,0.15
			c0.11,0.28,0.3,0.31,0.41,0.08c0.09-0.21,0.23-0.21,0.16,0c-0.02,0.06,0.01,0.1,0.05,0.1c0.05,0,0.1-0.05,0.12-0.11
			c0.05-0.14,0.14-0.14,0.14,0C31.62,37.01,31.55,37.12,31.46,37.18z M31.79,36.9c-0.03,0.04-0.06,0.02-0.06-0.05
			c0-0.06,0.03-0.12,0.06-0.12c0.03,0,0.06,0.02,0.06,0.05C31.84,36.81,31.82,36.86,31.79,36.9z M32.07,36.68
			c-0.03,0.04-0.06,0.02-0.06-0.05c0-0.06,0.03-0.12,0.06-0.12v0c0.03,0,0.06,0.02,0.06,0.05C32.12,36.59,32.1,36.64,32.07,36.68z
			 M32.29,36.41c-0.07,0-0.07-0.08,0-0.16c0.01-0.01,0.01-0.01,0.02-0.02v0c0.02-0.01,0.04,0.02,0.04,0.06
			C32.35,36.36,32.33,36.41,32.29,36.41z M32.75,34.78L32.75,34.78c0.01,0,0.02,0.02,0.02,0.05h-0.05
			C32.73,34.8,32.74,34.78,32.75,34.78z M33.09,32.71c-0.03,0-0.09,0.03-0.13,0.06c-0.04,0.03-0.14-0.04-0.22-0.17l-0.14-0.23l0,0
			l0.13,0.13c0.07,0.07,0.19,0.09,0.27,0.06c0.08-0.04,0.14-0.02,0.14,0.04C33.14,32.66,33.12,32.71,33.09,32.71z M33.43,32.67
			c0.05,0.05,0.03,0.12-0.04,0.22c-0.15,0.2-0.19,0.18-0.19-0.08c0-0.12,0.01-0.17,0.03-0.17v0c0.01,0,0.03,0.03,0.06,0.07
			c0.06,0.1,0.08,0.1,0.08,0.01C33.37,32.65,33.4,32.63,33.43,32.67z M32.59,31.6c0.02-0.21,0.05-0.24,0.23-0.21
			c0.16,0.03,0.21,0,0.21-0.14c0-0.09,0.04-0.17,0.08-0.17s0.08-0.07,0.08-0.15c0-0.07,0.02-0.11,0.06-0.11v0
			c0.01,0,0.03,0,0.05,0.01c0.09,0.05,0.07,0.11-0.15,0.43c-0.14,0.21-0.31,0.39-0.37,0.39c-0.06,0.01-0.11,0.05-0.11,0.1
			c0,0.05-0.03,0.09-0.06,0.09C32.59,31.84,32.58,31.73,32.59,31.6z M35.74,48.54c0-0.06,0.1-0.09,0.21-0.09
			c0.06,0,0.12,0.01,0.16,0.04c0.08,0.06,0.04,0.08-0.13,0.09C35.85,48.58,35.74,48.56,35.74,48.54z"/>
	</g>
	<g>
		<path class="st0" d="M51.81,43.43c-2.59-2.06-5.71-3.52-9.36-4.4c2.95-0.73,5.16-1.64,6.64-2.76c2.61-1.94,3.92-4.79,3.92-8.55
			c0-5-1.87-8.52-5.6-10.57c-3.74-2.05-8.78-3.07-15.14-3.07H10v1.48c3.19,0.16,5.26,0.65,6.2,1.49c0.94,0.84,1.41,2.72,1.41,5.65
			v35.36c0,2.96-0.47,4.85-1.41,5.66c-0.94,0.81-3.01,1.31-6.2,1.49v1.48h15.64V18.92h0.08c0.07-0.76,0.26-1.25,0.54-1.46
			c0.39-0.29,1.41-0.43,3.07-0.43c4.37,0,7.63,0.45,9.78,1.36c3.88,1.66,5.82,4.86,5.82,9.61c0,4.02-1.68,6.81-5.05,8.36
			c-0.03,0.02-0.07,0.03-0.1,0.04v5.97c0.69,0.25,1.34,0.54,1.96,0.85c3.21,1.63,4.81,4.67,4.81,9.12c0,4.48-1.37,7.51-4.11,9.08
			c-0.83,0.48-1.72,0.88-2.66,1.21v3.86c2.76-0.26,5.2-0.81,7.29-1.65c5.74-2.33,8.61-6.59,8.61-12.8
			C55.69,48.36,54.39,45.48,51.81,43.43z"/>
		<path class="st4" d="M51.81,43.43c-2.59-2.06-5.71-3.52-9.36-4.4c2.95-0.73,5.16-1.64,6.64-2.76c2.61-1.94,3.92-4.79,3.92-8.55
			c0-5-1.87-8.52-5.6-10.57c-3.74-2.05-8.78-3.07-15.14-3.07H10v1.48c3.19,0.16,5.26,0.65,6.2,1.49c0.94,0.84,1.41,2.72,1.41,5.65
			v35.36c0,2.96-0.47,4.85-1.41,5.66c-0.94,0.81-3.01,1.31-6.2,1.49v1.48h15.64V18.92h0.08c0.07-0.76,0.26-1.25,0.54-1.46
			c0.39-0.29,1.41-0.43,3.07-0.43c4.37,0,7.63,0.45,9.78,1.36c3.88,1.66,5.82,4.86,5.82,9.61c0,4.02-1.68,6.81-5.05,8.36
			c-0.03,0.02-0.07,0.03-0.1,0.04v5.97c0.69,0.25,1.34,0.54,1.96,0.85c3.21,1.63,4.81,4.67,4.81,9.12c0,4.48-1.37,7.51-4.11,9.08
			c-0.83,0.48-1.72,0.88-2.66,1.21v3.86c2.76-0.26,5.2-0.81,7.29-1.65c5.74-2.33,8.61-6.59,8.61-12.8
			C55.69,48.36,54.39,45.48,51.81,43.43z"/>
	</g>
</g>
</svg>
